<svg width="350" height="350" viewBox="0 0 350 350" fill="none" xmlns="http://www.w3.org/2000/svg">
<g clip-path="url(#clip0_1177_93)">
<rect width="350" height="350" fill="url(#paint0_linear_1177_93)"/>
<path d="M-188.197 311.441C-192.68 308.714 -191.749 301.952 -186.695 300.537L404.469 135.089C406.069 134.641 407.784 134.877 409.204 135.741L768.457 354.291C772.94 357.019 772.009 363.781 766.956 365.195L175.792 530.644C174.191 531.092 172.476 530.855 171.056 529.992L-188.197 311.441Z" fill="white"/>
<path d="M62.4069 248.151C57.2402 245.89 57.7642 238.396 63.1952 236.876L206.722 196.708C208.055 196.334 209.476 196.434 210.745 196.989L287.453 230.557C292.62 232.818 292.096 240.312 286.665 241.832L143.138 282C141.805 282.373 140.384 282.274 139.115 281.719L62.4069 248.151Z" fill="#919191"/>
<path d="M62.7289 170.447C57.5622 168.186 58.0862 160.692 63.5173 159.172L207.044 119.003C208.377 118.63 209.798 118.729 211.067 119.284L287.775 152.853C292.942 155.114 292.418 162.607 286.987 164.127L143.46 204.296C142.127 204.669 140.706 204.57 139.438 204.015L62.7289 170.447Z" fill="#B6B6B6"/>
<path d="M62.7289 144.447C57.5622 142.186 58.0862 134.692 63.5173 133.172L207.044 93.0032C208.377 92.6301 209.798 92.7294 211.067 93.2844L287.775 126.853C292.942 129.114 292.418 136.607 286.987 138.127L143.46 178.296C142.127 178.669 140.706 178.57 139.438 178.015L62.7289 144.447Z" fill="#D9D9D9"/>
<path d="M62.4069 118.447C57.2402 116.186 57.7642 108.692 63.1952 107.172L206.722 67.0032C208.055 66.6301 209.476 66.7294 210.745 67.2844L287.453 100.853C292.62 103.114 292.096 110.607 286.665 112.127L143.138 152.296C141.805 152.669 140.384 152.57 139.115 152.015L62.4069 118.447Z" fill="white"/>
</g>
<defs>
<linearGradient id="paint0_linear_1177_93" x1="0" y1="0" x2="350" y2="350" gradientUnits="userSpaceOnUse">
<stop stop-color="#6391F4"/>
<stop offset="1" stop-color="#1653D4"/>
</linearGradient>
<clipPath id="clip0_1177_93">
<rect width="350" height="350" fill="white"/>
</clipPath>
</defs>
</svg>
