<svg width="500" height="500" viewBox="0 0 500 500" fill="none" xmlns="http://www.w3.org/2000/svg">
<rect width="500" height="500" fill="white"/>
<path d="M233.961 317.534C229.1 317.534 223.839 318.105 219.142 316.632C204.451 312.028 191.368 301.204 181.042 290.098C168.234 276.321 156.599 260.848 146.998 244.689C141.246 235.008 138.307 224.556 136.234 213.599C135.27 208.5 135.008 201.709 137.636 197.027C142.128 189.025 150.191 182.08 157.111 176.325C179.089 158.049 204.567 140.572 232.709 133.595C243.498 130.92 254.993 130.465 266.053 131.192C277.27 131.929 288.043 135.602 298.645 139.102C307.246 141.942 315.992 145.372 323.878 149.866C330.876 153.854 336.434 158.505 342.227 164.034C349.954 171.411 357.613 180.85 358.773 191.871C359.395 197.778 359.276 203.629 358.773 209.544C358.2 216.276 355.324 223.159 353.016 229.469C349.791 238.282 345.139 247.466 338.397 254.101C334.282 258.15 328.866 261.179 323.878 264.014C318.33 267.167 312.741 270.358 306.906 272.951C299.757 276.128 292.591 278.964 285.553 282.388C278.528 285.805 271.721 289.751 265.252 294.103C259.779 297.785 254.915 301.887 249.732 305.919C247.589 307.585 245.608 310.324 242.747 310.324C240.433 310.324 238.224 311.957 236.865 313.704C235.164 315.89 234.34 316.182 231.708 316.182" stroke="black" stroke-width="3" stroke-linecap="round"/>
<path d="M217.289 186.414C217.118 188.132 214.575 191.244 215.838 192.822C216.656 193.845 218.097 194.266 218.866 195.65C220.232 198.108 222.246 195.789 222.246 193.848C222.246 191.605 220.983 189.552 220.343 187.315C220.19 186.779 219.364 184.361 218.641 184.361C217.884 184.361 218.191 187.001 218.191 187.415C218.191 189.996 219.542 192.378 219.542 194.749C219.542 195.835 219.242 196.129 218.391 195.4C217.444 194.589 217.74 192.926 217.74 191.795C217.74 191.391 217.516 187.815 217.965 187.815C218.823 187.815 219.542 189.313 219.542 190.018" stroke="black" stroke-width="3" stroke-linecap="round"/>
<path d="M299.746 194.074C299.746 191.951 297.455 187.346 299.196 185.412C301.014 183.392 303.351 185.915 303.351 187.765C303.351 189.857 302.546 192.226 301.198 193.723C298.824 196.362 297.944 191.532 297.944 189.793C297.944 188.592 301.957 185.027 302.425 186.664C303.025 188.766 302.515 191.732 301.549 193.423C299.634 196.773 297.809 188.266 299.071 188.266C299.448 188.266 299.316 191.15 299.997 191.345C301.047 191.645 300.648 188.847 300.648 188.216" stroke="black" stroke-width="3" stroke-linecap="round"/>
<path d="M219.092 249.946C224.606 249.683 230.357 247.176 235.663 245.891C247.623 242.995 259.519 241.454 271.735 240.258C277.044 239.739 282.508 239.276 287.831 239.132C289.201 239.095 290.541 238.668 289.834 240.258C285.949 249 282.441 258.066 278.018 266.618C277.054 268.482 275.93 270.498 274.288 271.774C273.323 272.525 273.368 270.712 272.711 270.673C264.788 270.207 256.721 265.127 249.281 262.337C244.087 260.389 238.927 258.286 233.961 255.804C232.676 255.161 231.522 254.367 230.156 253.976C227.711 253.278 225.203 250.995 222.696 250.847C221.981 250.805 217.658 249.495 219.092 249.495" stroke="black" stroke-width="3" stroke-linecap="round"/>
<path d="M251.984 243.187C251.984 246.51 251.36 250.481 252.335 253.651C252.609 254.542 252.015 257.379 253.787 255.804C254.695 254.996 256.46 255.353 257.617 255.353C258.91 255.353 260.095 255.798 260.095 254.227C260.095 252.799 259.912 251.904 259.194 250.647C258.189 248.889 258.743 245.738 258.743 243.638" stroke="black" stroke-width="3" stroke-linecap="round"/>
<path d="M262.799 242.737C262.799 244.503 261.858 250.107 263.149 251.398C264.323 252.572 263.159 252.711 264.701 252.65C266.239 252.588 267.792 252.65 269.332 252.65C273.219 252.65 270.538 249.74 270.033 247.468C269.804 246.438 269.375 245.41 269.132 244.314C269.029 243.851 269.252 240.644 268.656 241.836" stroke="black" stroke-width="3" stroke-linecap="round"/>
<path d="M205.574 101.253C205.574 102.728 205.668 111.516 207.377 111.616C209.662 111.751 214.888 115.259 215.036 117.925C215.252 121.812 215.036 125.777 215.036 129.64C215.036 132.297 222.82 136.686 220.444 135.497" stroke="black" stroke-width="3" stroke-linecap="round"/>
<path d="M260.095 99.0001C258.67 99.0001 257.531 98.9825 256.19 99.5508C254.399 100.31 250.518 101.284 249.281 102.83C248.485 103.825 248.426 106.697 249.506 107.561C252.014 109.567 254.219 113.59 257.617 114.345C261.242 115.151 263.412 120.492 260.646 122.981C258.275 125.115 256.712 129.64 252.886 129.64" stroke="black" stroke-width="3" stroke-linecap="round"/>
<path d="M311.462 112.067C308.858 112.067 306.255 112.067 303.652 112.067C300.82 112.067 296.051 111.18 293.438 112.418C291.028 113.559 285.213 117.541 288.482 120.628C289.415 121.51 291.562 122.449 291.636 123.782C291.681 124.6 292.02 128.634 291.185 128.739C289.924 128.896 288.729 130.484 287.581 131.092C285.872 131.996 285.121 132.343 283.075 132.343" stroke="black" stroke-width="3" stroke-linecap="round"/>
<path d="M359.224 206.69C364.211 206.69 369.453 204.527 374.193 203.01C377.809 201.853 385.157 199.931 385.157 199.931C385.157 199.931 384.33 199.394 384.006 199.03C383.012 197.912 382.809 195.543 382.454 194.124C382.113 192.76 381.48 189.835 383.38 189.543C384.301 189.401 387.606 187.961 388.412 188.767C389.201 189.556 388.962 191.888 388.962 192.947C388.962 194.816 389.06 196.713 388.962 198.579C388.889 199.977 386.319 199.481 385.358 199.481" stroke="black" stroke-width="3" stroke-linecap="round"/>
<path d="M113.655 254.001C116.157 253.566 118.746 251.823 121.115 250.847C124.006 249.657 126.817 248.073 129.626 246.692C131.697 245.673 134.778 244.684 136.535 243.087C138.347 241.44 141.13 241.475 142.843 239.933C143.078 239.722 145.699 238.483 145.546 238.331C144.821 237.606 142.329 238.663 141.591 239.032C137.911 240.872 133.861 241.909 130.327 243.988C124.551 247.386 119.002 251.483 113.204 254.552C108.345 257.125 103.223 263.021 107.597 268.645C108.025 269.196 109.862 271.574 108.473 271.574C107.214 271.574 105.996 271.303 104.894 270.673C102.937 269.555 101.42 266.944 100.363 265.041C98.8187 262.261 102.622 257.113 103.942 254.953C105.617 252.212 108.441 248.144 112.078 248.144C118.821 248.144 115.841 258.547 115.432 262.637C115.04 266.557 114.608 271.574 110.05 271.574C107.647 271.574 105.258 270.101 104.193 267.969" stroke="black" stroke-width="3" stroke-linecap="round"/>
<path d="M242.973 310.775C242.973 331.852 242.973 352.93 242.973 374.007C242.973 379.439 241.589 384.208 241.07 389.727C240.566 395.091 239.39 400.74 238.242 406.023C238.033 406.983 238.202 409.067 237.466 409.803C236.161 411.108 232.272 406.324 231.808 405.398C229.712 401.204 235.69 399.597 238.667 399.54C242.786 399.461 248.38 400.223 248.38 405.398C248.38 408.592 238.949 408.101 236.665 408.101C233.345 408.101 232.683 404.083 229.906 402.694" stroke="black" stroke-width="3" stroke-linecap="round"/>
<path d="M311.462 272.025C311.462 304.634 311.462 337.243 311.462 369.852C311.462 386.696 311.642 403.182 314.065 419.867C314.708 424.295 315.644 428.688 316.443 433.084C316.674 434.353 316.856 434.225 315.867 433.434C315.341 433.013 314.15 432.575 313.489 432.208C310.926 430.783 306.468 426.982 306.981 423.646C307.805 418.288 317.571 417.564 321.625 417.564C325.504 417.564 326.782 418.571 326.782 422.52C326.782 428.878 323.863 435.957 317.67 438.641C316.514 439.142 308.758 441.592 308.758 439.192" stroke="black" stroke-width="3" stroke-linecap="round"/>
<path d="M132.641 112.497C134.774 112.497 136.605 113.516 138.755 113.516" stroke="#FF0000" stroke-width="3" stroke-linecap="round"/>
<path d="M127.545 120.65C132.98 120.65 138.415 120.65 143.85 120.65C146.074 120.65 143.443 122.021 142.803 122.461C140.298 124.183 138.235 126.481 135.641 128.066C132.497 129.987 129.116 133.016 126.413 135.539C125.141 136.726 122.702 137.979 121.941 139.502" stroke="#FF0000" stroke-width="3" stroke-linecap="round"/>
<path d="M134.679 130.33H142.321" stroke="#FF0000" stroke-width="3" stroke-linecap="round"/>
<path d="M120.922 140.011C130.245 140.011 139.74 139.502 148.945 139.502" stroke="#FF0000" stroke-width="3" stroke-linecap="round"/>
<path d="M137.226 141.03V141.54" stroke="#FF0000" stroke-width="3" stroke-linecap="round"/>
<path d="M129.074 148.164C132.131 148.164 135.188 148.164 138.245 148.164C139.257 148.164 140.292 148.104 141.302 148.164C142.403 148.228 141.343 149.767 141.302 150.315C140.874 156.094 139.774 161.691 139.774 167.525" stroke="#FF0000" stroke-width="3" stroke-linecap="round"/>
<path d="M164.231 135.426C166.076 135.656 164.13 139.13 162.929 139.473C162.034 139.729 161.345 134.916 163.466 134.916C164.379 134.916 164.888 134.121 165.986 134.435C167.212 134.785 165.498 136.551 165.136 136.841C164.551 137.309 162.355 136.824 163.466 135.935C164.503 135.106 165.25 135.593 165.25 136.954" stroke="#FF0000" stroke-width="3" stroke-linecap="round"/>
<path d="M178.497 120.14C181.291 120.14 183.646 121.159 186.395 121.159C189.027 121.159 191.66 121.159 194.292 121.159" stroke="#FF0000" stroke-width="3" stroke-linecap="round"/>
<path d="M177.478 119.63C177.478 121.742 176.51 133.387 178.497 133.387C184.902 133.387 191.605 131.349 197.859 131.349" stroke="#FF0000" stroke-width="3" stroke-linecap="round"/>
<path d="M201.935 115.045V142.559" stroke="#FF0000" stroke-width="3" stroke-linecap="round"/>
<path d="M203.973 128.802H214.673" stroke="#FF0000" stroke-width="3" stroke-linecap="round"/>
<path d="M193.783 143.068C193.783 144.682 193.783 146.295 193.783 147.909C193.783 149.749 195.344 149.183 196.84 149.183C199.883 149.183 202.198 148.157 204.483 146.125C209.371 141.78 195.139 141.03 192.764 141.03" stroke="#FF0000" stroke-width="3" stroke-linecap="round"/>
<path d="M223.844 116.573H232.506" stroke="#FF0000" stroke-width="3" stroke-linecap="round"/>
<path d="M219.768 124.726C223.08 124.726 226.392 124.726 229.704 124.726C230.732 124.726 232.789 123.697 232.789 124.726C232.789 125.082 228.785 127.039 228.43 127.273C222.817 130.98 217.141 134.995 212.38 139.756C210.441 141.696 207.205 143.738 206.011 146.125" stroke="#FF0000" stroke-width="3" stroke-linecap="round"/>
<path d="M222.825 128.292C222.988 129.593 224.284 131.21 224.863 132.368" stroke="#FF0000" stroke-width="3" stroke-linecap="round"/>
<path d="M224.863 132.368C225.117 134.91 228.37 137.427 229.704 139.502C231.603 142.457 233.02 145.621 235.563 148.163" stroke="#FF0000" stroke-width="3" stroke-linecap="round"/>
<path d="M239.13 134.916H252.887" stroke="#FF0000" stroke-width="3" stroke-linecap="round"/>
<path d="M256.963 124.216V142.049" stroke="#FF0000" stroke-width="3" stroke-linecap="round"/>
<path d="M245.244 148.163V148.673" stroke="#FF0000" stroke-width="3" stroke-linecap="round"/>
<path d="M245.244 148.673V155.297" stroke="#FF0000" stroke-width="3" stroke-linecap="round"/>
<path d="M245.244 148.163C248.97 148.163 253.595 147.387 257.218 148.192C261.867 149.225 259.691 154.237 259.51 157.844C259.459 158.875 259.243 162.565 257.444 161.666C255.333 160.61 252.131 160.348 249.801 159.882C247.688 159.46 245.773 158.396 243.772 157.618C242.716 157.207 239.326 156.45 240.262 155.41C241.173 154.397 241.583 152.429 242.187 151.221" stroke="#FF0000" stroke-width="3" stroke-linecap="round"/>
</svg>
