<svg width="494" height="494" viewBox="0 0 494 494" fill="none" xmlns="http://www.w3.org/2000/svg">
<path d="M246.99 41.165C206.282 41.165 166.488 53.2365 132.64 75.8528C98.7922 98.4692 72.4111 130.615 56.8326 168.224C41.2542 205.834 37.1782 247.219 45.12 287.145C53.0618 327.071 72.6648 363.745 101.45 392.531C130.235 421.316 166.91 440.919 206.836 448.861C246.762 456.802 288.147 452.726 325.756 437.148C363.366 421.57 395.511 395.188 418.128 361.341C440.744 327.493 452.816 287.699 452.816 246.99C452.816 219.961 447.492 193.196 437.148 168.224C426.804 143.252 411.643 120.562 392.531 101.45C373.418 82.3372 350.728 67.1762 325.756 56.8326C300.784 46.4889 274.02 41.165 246.99 41.165ZM335.495 197.798L241.433 321.293C239.516 323.784 237.053 325.802 234.235 327.194C231.416 328.585 228.316 329.313 225.173 329.32C222.047 329.337 218.957 328.642 216.14 327.286C213.323 325.931 210.851 323.952 208.913 321.499L158.691 257.487C157.029 255.352 155.804 252.91 155.085 250.301C154.366 247.692 154.169 244.967 154.503 242.282C154.838 239.597 155.698 237.004 157.034 234.651C158.371 232.298 160.158 230.231 162.293 228.569C166.606 225.212 172.075 223.705 177.498 224.381C180.184 224.715 182.777 225.575 185.13 226.912C187.483 228.249 189.549 230.035 191.212 232.171L224.761 274.982L302.563 172.07C304.212 169.908 306.27 168.091 308.621 166.724C310.972 165.358 313.569 164.467 316.264 164.104C318.959 163.741 321.699 163.912 324.327 164.608C326.956 165.304 329.422 166.51 331.585 168.159C333.747 169.808 335.563 171.867 336.93 174.217C338.297 176.568 339.187 179.165 339.55 181.86C339.913 184.555 339.742 187.295 339.046 189.924C338.351 192.552 337.144 195.018 335.495 197.181V197.798Z" fill="black"/>
</svg>
