<svg width="193" height="193" viewBox="0 0 193 193" fill="none" xmlns="http://www.w3.org/2000/svg">
<path d="M96.279 108.314C102.926 108.314 108.314 102.926 108.314 96.279C108.314 89.6323 102.926 84.2441 96.279 84.2441C89.6323 84.2441 84.2441 89.6323 84.2441 96.279C84.2441 102.926 89.6323 108.314 96.279 108.314Z" fill="#231F20"/>
<path d="M122.676 145.382L112.326 134.631L111.764 134.069L101.575 123.88C99.9578 124.163 98.3217 124.324 96.6806 124.361C92.9592 124.415 89.2645 123.727 85.8111 122.34C82.3576 120.953 79.2144 118.893 76.5642 116.28C73.914 113.667 71.8096 110.553 70.3733 107.12C68.9371 103.686 68.1977 100.002 68.1981 96.28C68.2353 94.6388 68.3962 93.0028 68.6795 91.3858L52.633 75.3394L40.1167 63.144C31.0611 71.6765 23.3033 81.4887 17.09 92.2684C16.3859 93.4881 16.0151 94.8716 16.0151 96.28C16.0151 97.6884 16.3859 99.0719 17.09 100.292C22.1447 109.037 49.183 152.443 96.4399 152.443H98.4457C107.332 152.179 116.103 150.36 124.361 147.067L122.676 145.382Z" fill="#231F20"/>
<path d="M68.9194 46.2169L91.3844 68.6819C93.0014 68.3987 94.6374 68.2377 96.2786 68.2005C103.726 68.2005 110.869 71.1591 116.135 76.4253C121.401 81.6916 124.36 88.8342 124.36 96.2818C124.323 97.923 124.162 99.559 123.879 101.176L145.381 122.678L152.12 129.418C161.29 120.908 169.156 111.094 175.468 100.293C176.172 99.0738 176.543 97.6902 176.543 96.2818C176.543 94.8735 176.172 93.4899 175.468 92.2702C170.333 83.3644 142.091 38.675 94.1123 40.1192C85.2262 40.3828 76.4551 42.2022 68.1973 45.4948L68.9194 46.2169Z" fill="#231F20"/>
<path d="M166.163 154.77L155.733 144.42L139.686 128.373L63.305 51.912L51.5109 40.1179L37.7911 26.3981C37.0431 25.6501 36.155 25.0567 35.1776 24.6518C34.2002 24.247 33.1526 24.0386 32.0946 24.0386C31.0367 24.0386 29.9891 24.247 29.0117 24.6518C28.0343 25.0567 27.1462 25.6501 26.3981 26.3981C24.8873 27.9089 24.0386 29.958 24.0386 32.0946C24.0386 34.2312 24.8873 36.2803 26.3981 37.7911L44.3702 56.1643L58.4109 69.8038L117.061 128.373L117.622 128.935L128.373 139.686L133.107 144.42L154.77 166.163C155.516 166.915 156.403 167.512 157.381 167.919C158.359 168.326 159.407 168.536 160.466 168.536C161.526 168.536 162.574 168.326 163.552 167.919C164.53 167.512 165.417 166.915 166.163 166.163C166.915 165.417 167.512 164.53 167.919 163.552C168.326 162.574 168.536 161.526 168.536 160.466C168.536 159.407 168.326 158.359 167.919 157.381C167.512 156.403 166.915 155.516 166.163 154.77Z" fill="#231F20"/>
</svg>
