<svg width="27" height="24" viewBox="0 0 27 24" fill="none" xmlns="http://www.w3.org/2000/svg">
<path d="M13.2891 12C17.4835 12 20.8829 9.31406 20.8829 6C20.8829 2.68594 17.4835 0 13.2891 0C9.09476 0 5.69535 2.68594 5.69535 6C5.69535 9.31406 9.09476 12 13.2891 12ZM18.6048 13.5H17.6141C16.297 13.9781 14.8316 14.25 13.2891 14.25C11.7467 14.25 10.2872 13.9781 8.96424 13.5H7.97349C3.57146 13.5 0 16.3219 0 19.8V21.75C0 22.9922 1.27552 24 2.84767 24H23.7306C25.3028 24 26.5783 22.9922 26.5783 21.75V19.8C26.5783 16.3219 23.0068 13.5 18.6048 13.5Z" fill="black"/>
</svg>
