<svg width="26" height="26" viewBox="0 0 26 26" fill="none" xmlns="http://www.w3.org/2000/svg">
<path d="M11.9166 20.5832V21.6665C11.9166 21.9538 11.8025 22.2294 11.5993 22.4325C11.3961 22.6357 11.1206 22.7498 10.8333 22.7498H8.66662V23.8332C8.66662 24.4078 8.43834 24.9589 8.03202 25.3652C7.62569 25.7715 7.07459 25.9998 6.49996 25.9998H2.16665C1.59202 25.9998 1.04092 25.7715 0.634598 25.3652C0.228272 24.9589 0 24.4078 0 23.8332V21.0317C0.000122714 20.4571 0.228475 19.9061 0.63483 19.4999L9.01978 11.1149C8.50565 9.36911 8.55415 7.50575 9.15842 5.78906C9.76269 4.07237 10.8921 2.58946 12.3864 1.55062C13.8807 0.511779 15.6641 -0.0302802 17.4838 0.00130601C19.3035 0.0328922 21.067 0.63652 22.5244 1.7266C23.9817 2.81668 25.059 4.33788 25.6033 6.07451C26.1476 7.81114 26.1314 9.67507 25.557 11.402C24.9826 13.1289 23.8791 14.6312 22.403 15.6957C20.9269 16.7603 19.1532 17.3332 17.3332 17.3332H15.1644V19.4999C15.1644 19.7872 15.0503 20.0627 14.8471 20.2659C14.6439 20.4691 14.3684 20.5832 14.0811 20.5832H11.9144H11.9166ZM19.4999 8.66661C20.0745 8.66661 20.6256 8.43833 21.0319 8.03201C21.4383 7.62568 21.6665 7.07459 21.6665 6.49995C21.6665 5.92532 21.4383 5.37423 21.0319 4.9679C20.6256 4.56157 20.0745 4.3333 19.4999 4.3333C18.9253 4.3333 18.3742 4.56157 17.9678 4.9679C17.5615 5.37423 17.3332 5.92532 17.3332 6.49995C17.3332 7.07459 17.5615 7.62568 17.9678 8.03201C18.3742 8.43833 18.9253 8.66661 19.4999 8.66661Z" fill="black"/>
</svg>
