<svg width="26" height="26" viewBox="0 0 26 26" fill="none" xmlns="http://www.w3.org/2000/svg">
<g id="&#240;&#159;&#166;&#134; icon &#34;search&#34;">
<path id="Vector" d="M10.4064 2.60026C8.33643 2.60026 6.35125 3.42259 4.88757 4.88636C3.42389 6.35013 2.6016 8.33542 2.6016 10.4055C2.6016 12.4756 3.42389 14.4609 4.88757 15.9246C6.35125 17.3884 8.33643 18.2107 10.4064 18.2107C12.4764 18.2107 14.4615 17.3884 15.9252 15.9246C17.3889 14.4609 18.2112 12.4756 18.2112 10.4055C18.2112 8.33542 17.3889 6.35013 15.9252 4.88636C14.4615 3.42259 12.4764 2.60026 10.4064 2.60026ZM6.42806e-08 10.4055C0.00023717 8.74931 0.395727 7.11708 1.1536 5.64449C1.91147 4.17189 3.00984 2.90145 4.35742 1.93874C5.705 0.976041 7.26288 0.34888 8.90157 0.109386C10.5403 -0.130109 12.2124 0.0249779 13.7792 0.561758C15.3459 1.09854 16.7618 2.00151 17.9094 3.19563C19.057 4.38974 19.903 5.84052 20.3771 7.42738C20.8513 9.01424 20.9399 10.6914 20.6356 12.3194C20.3313 13.9473 19.6428 15.4792 18.6274 16.7876L25.6348 23.7954C25.8718 24.0407 26.0029 24.3693 26 24.7104C25.997 25.0515 25.8602 25.3778 25.619 25.619C25.3778 25.8602 25.0516 25.997 24.7105 26C24.3694 26.0029 24.0409 25.8718 23.7955 25.6348L16.7881 18.627C15.2499 19.8213 13.4074 20.5601 11.4701 20.7591C9.53292 20.9582 7.5787 20.6097 5.82972 19.7532C4.08074 18.8966 2.60718 17.5665 1.5766 15.914C0.546022 14.2616 -0.00021635 12.353 6.42806e-08 10.4055Z" fill="#316AE2"/>
</g>
</svg>
